# Vectary OBJ Export units=mm
mtllib CessnaArtificialPlane.mtl
o 000_CessnaPlane
g CessnaPlane
usemtl Grand Avenue_0b0597c8-ef8d-4f00-8bce-7b93e521037e
v 60.000 -0.003 -60.000
v -60.000 -0.003 -60.000
v -60.000 -0.003 60.000
v 60.000 -0.003 60.000
vt 1.00000 1.00000
vt 0.00000 1.00000
vt 0.00000 0.00000
vt 1.00000 0.00000
vn 0.00000 1.00000 0.00000
vn 0.00000 1.00000 0.00000
vn 0.00000 1.00000 0.00000
vn 0.00000 1.00000 0.00000
f 2/2/2 3/3/3 4/4/4 1/1/1 
o 001_image4
g image4
usemtl Island Moment_922d3656-c76b-4738-b46a-1d24fa4c134b
v 12.500 0.000 -2.500
v 7.500 0.000 -2.500
v 7.500 -0.000 2.500
v 12.500 -0.000 2.500
vt 1.00000 1.00000
vt 0.00000 1.00000
vt 0.00000 0.00000
vt 1.00000 0.00000
vn 0.00000 1.00000 0.00000
vn 0.00000 1.00000 0.00000
vn 0.00000 1.00000 0.00000
vn 0.00000 1.00000 0.00000
f 6/6/6 7/7/7 8/8/8 5/5/5 
o 002_image3
g image3
usemtl Melody_80a74968-d0e7-49cc-a50c-6c6f564f711a
v 22.500 0.000 -2.500
v 17.500 0.000 -2.500
v 17.500 -0.000 2.500
v 22.500 -0.000 2.500
vt 1.00000 1.00000
vt 0.00000 1.00000
vt 0.00000 0.00000
vt 1.00000 0.00000
vn 0.00000 1.00000 0.00000
vn 0.00000 1.00000 0.00000
vn 0.00000 1.00000 0.00000
vn 0.00000 1.00000 0.00000
f 10/10/10 11/11/11 12/12/12 9/9/9 
o 003_image5
g image5
usemtl Timeless Beauty_92069863-5629-4b0c-9b28-ac3dc3cd1e28
v 32.500 0.000 -2.500
v 27.500 0.000 -2.500
v 27.500 -0.000 2.500
v 32.500 -0.000 2.500
vt 1.00000 1.00000
vt 0.00000 1.00000
vt 0.00000 0.00000
vt 1.00000 0.00000
vn 0.00000 1.00000 0.00000
vn 0.00000 1.00000 0.00000
vn 0.00000 1.00000 0.00000
vn 0.00000 1.00000 0.00000
f 14/14/14 15/15/15 16/16/16 13/13/13 
o 004_image7
g image7
usemtl Pyramid_93edd531-56aa-41d8-b227-22d3ccc89e76
v 42.500 0.000 -2.500
v 37.500 0.000 -2.500
v 37.500 -0.000 2.500
v 42.500 -0.000 2.500
vt 1.00000 1.00000
vt 0.00000 1.00000
vt 0.00000 0.00000
vt 1.00000 0.00000
vn 0.00000 1.00000 0.00000
vn 0.00000 1.00000 0.00000
vn 0.00000 1.00000 0.00000
vn 0.00000 1.00000 0.00000
f 18/18/18 19/19/19 20/20/20 17/17/17 
o 005_image8
g image8
usemtl Luna_caf662e1-9f22-4387-9ff0-f0e3a0f27623
v 52.500 0.000 -2.500
v 47.500 0.000 -2.500
v 47.500 -0.000 2.500
v 52.500 -0.000 2.500
vt 1.00000 1.00000
vt 0.00000 1.00000
vt 0.00000 0.00000
vt 1.00000 0.00000
vn 0.00000 1.00000 0.00000
vn 0.00000 1.00000 0.00000
vn 0.00000 1.00000 0.00000
vn 0.00000 1.00000 0.00000
f 22/22/22 23/23/23 24/24/24 21/21/21 
